<svg width="12" height="12" viewBox="0 0 12 12" fill="none" xmlns="http://www.w3.org/2000/svg">
<path d="M8.95944 7.16006C8.82994 7.28556 8.77044 7.46706 8.79994 7.64506L9.24444 10.1051C9.28194 10.3136 9.19394 10.5246 9.01944 10.6451C8.84844 10.7701 8.62094 10.7851 8.43444 10.6851L6.21994 9.53006C6.14294 9.48906 6.05744 9.46706 5.96994 9.46456H5.83444C5.78744 9.47156 5.74144 9.48656 5.69944 9.50956L3.48444 10.6701C3.37494 10.7251 3.25094 10.7446 3.12944 10.7251C2.83344 10.6691 2.63594 10.3871 2.68444 10.0896L3.12944 7.62956C3.15894 7.45006 3.09944 7.26756 2.96994 7.14006L1.16444 5.39006C1.01344 5.24356 0.960938 5.02356 1.02994 4.82506C1.09694 4.62706 1.26794 4.48256 1.47444 4.45006L3.95944 4.08956C4.14844 4.07006 4.31444 3.95506 4.39944 3.78506L5.49444 1.54006C5.52044 1.49006 5.55394 1.44406 5.59444 1.40506L5.63944 1.37006C5.66294 1.34406 5.68994 1.32256 5.71994 1.30506L5.77444 1.28506L5.85944 1.25006H6.06994C6.25794 1.26956 6.42344 1.38206 6.50994 1.55006L7.61944 3.78506C7.69944 3.94856 7.85494 4.06206 8.03444 4.08956L10.5194 4.45006C10.7294 4.48006 10.9049 4.62506 10.9744 4.82506C11.0399 5.02556 10.9834 5.24556 10.8294 5.39006L8.95944 7.16006Z" fill="white"/>
</svg>
