<svg width="28" height="28" viewBox="0 0 28 28" fill="none" xmlns="http://www.w3.org/2000/svg">
<path fill-rule="evenodd" clip-rule="evenodd" d="M3.5 7.58333C3.5 4.52059 3.53279 3.5 7.58333 3.5C11.6339 3.5 11.6667 4.52059 11.6667 7.58333C11.6667 10.6461 11.6796 11.6667 7.58333 11.6667C3.48708 11.6667 3.5 10.6461 3.5 7.58333Z" stroke="white" stroke-width="1.5" stroke-linecap="round" stroke-linejoin="round"/>
<path fill-rule="evenodd" clip-rule="evenodd" d="M16.3335 7.58333C16.3335 4.52059 16.3663 3.5 20.4168 3.5C24.4674 3.5 24.5002 4.52059 24.5002 7.58333C24.5002 10.6461 24.5131 11.6667 20.4168 11.6667C16.3206 11.6667 16.3335 10.6461 16.3335 7.58333Z" stroke="white" stroke-width="1.5" stroke-linecap="round" stroke-linejoin="round"/>
<path fill-rule="evenodd" clip-rule="evenodd" d="M3.5 20.4166C3.5 17.3538 3.53279 16.3333 7.58333 16.3333C11.6339 16.3333 11.6667 17.3538 11.6667 20.4166C11.6667 23.4793 11.6796 24.4999 7.58333 24.4999C3.48708 24.4999 3.5 23.4793 3.5 20.4166Z" stroke="white" stroke-width="1.5" stroke-linecap="round" stroke-linejoin="round"/>
<path fill-rule="evenodd" clip-rule="evenodd" d="M16.3335 20.4166C16.3335 17.3538 16.3663 16.3333 20.4168 16.3333C24.4674 16.3333 24.5002 17.3538 24.5002 20.4166C24.5002 23.4793 24.5131 24.4999 20.4168 24.4999C16.3206 24.4999 16.3335 23.4793 16.3335 20.4166Z" stroke="white" stroke-width="1.5" stroke-linecap="round" stroke-linejoin="round"/>
</svg>
