<svg xmlns="http://www.w3.org/2000/svg" xmlns:xlink="http://www.w3.org/1999/xlink" width="500" zoomAndPan="magnify" viewBox="0 0 375 374.999991" height="500" preserveAspectRatio="xMidYMid meet" version="1.0"><path fill="#40cbbe" d="M 343.140625 264.054688 C 338.082031 255.621094 330.398438 247.5625 322.527344 244.191406 C 317.839844 242.316406 312.03125 239.878906 306.597656 239.691406 C 303.785156 239.503906 301.160156 240.066406 298.914062 241.191406 C 296.476562 242.316406 294.414062 244.566406 292.542969 247.75 C 291.605469 249.4375 291.042969 250.9375 290.480469 252.4375 C 290.105469 253.933594 289.917969 255.246094 290.105469 256.746094 C 290.105469 259.371094 291.230469 261.992188 292.542969 264.242188 C 295.539062 268.929688 300.414062 272.863281 304.535156 275.863281 C 310.53125 280.546875 319.527344 282.984375 328.335938 283.734375 C 329.648438 283.921875 330.773438 283.921875 332.082031 283.921875 C 336.957031 283.921875 341.453125 283.546875 344.640625 282.984375 C 347.824219 282.421875 350.074219 281.671875 350.261719 281.296875 C 350.449219 280.921875 350.074219 278.671875 348.949219 275.675781 C 347.453125 272.300781 345.578125 268.179688 343.140625 264.054688 Z M 343.140625 264.054688 " fill-opacity="1" fill-rule="nonzero"/><path fill="#ffffff" d="M 365.628906 220.578125 C 362.445312 217.953125 357.945312 217.203125 354.386719 216.640625 C 352.886719 216.453125 351.199219 216.265625 349.511719 216.453125 C 347.824219 216.453125 346.140625 216.828125 344.453125 217.015625 C 340.890625 217.578125 337.519531 218.703125 334.332031 219.640625 C 333.394531 219.828125 332.457031 220.203125 331.710938 220.390625 C 328.523438 221.328125 325.898438 222.453125 324.398438 223.011719 C 324.210938 223.011719 324.027344 223.199219 323.839844 223.199219 C 323.464844 223.386719 323.277344 223.386719 323.089844 223.574219 C 322.902344 223.761719 322.902344 223.761719 322.902344 223.761719 C 322.714844 224.136719 326.085938 228.261719 330.773438 233.132812 C 335.269531 237.820312 341.078125 243.628906 346.890625 245.691406 C 350.261719 246.8125 354.574219 248.5 358.507812 247.75 C 362.632812 247 366.566406 244.003906 368.816406 235.945312 C 370.691406 227.886719 368.816406 223.199219 365.628906 220.578125 Z M 365.628906 220.578125 " fill-opacity="1" fill-rule="nonzero"/><path fill="#ffffff" d="M 317.464844 296.289062 C 314.46875 293.851562 310.34375 292.167969 306.035156 290.667969 C 303.410156 289.917969 300.972656 289.167969 298.539062 288.605469 C 294.789062 287.667969 291.605469 287.105469 289.542969 286.730469 C 289.355469 286.730469 288.980469 286.730469 288.792969 286.542969 C 287.855469 286.355469 287.292969 286.355469 286.917969 286.355469 C 286.917969 286.355469 286.730469 286.355469 286.730469 286.355469 C 286.730469 286.355469 286.730469 286.355469 286.542969 286.355469 C 286.167969 286.730469 287.105469 291.792969 288.605469 298.351562 C 290.105469 304.722656 292.355469 312.59375 296.101562 317.277344 C 298.351562 320.089844 301.347656 323.464844 305.097656 324.960938 C 306.972656 325.710938 309.21875 325.898438 311.84375 325.148438 C 314.28125 324.398438 317.089844 322.714844 320.089844 319.902344 C 322.902344 316.902344 324.585938 314.09375 325.335938 311.65625 C 326.085938 309.21875 325.710938 306.972656 325.148438 304.910156 C 323.652344 301.347656 320.089844 298.539062 317.464844 296.289062 Z M 317.464844 296.289062 " fill-opacity="1" fill-rule="nonzero"/><path fill="#40cbbe" d="M 201.835938 316.527344 C 200.523438 314.09375 198.839844 312.03125 196.589844 310.53125 C 194.339844 309.21875 191.527344 308.285156 187.59375 308.285156 C 180.097656 308.097656 175.972656 311.65625 173.539062 316.527344 C 170.914062 321.402344 170.164062 327.585938 169.601562 332.644531 C 169.414062 333.769531 169.414062 334.894531 169.414062 336.019531 C 169.414062 338.269531 169.601562 340.703125 169.976562 342.953125 C 170.164062 344.078125 170.539062 345.390625 170.726562 346.515625 C 172.039062 351.386719 174.101562 356.070312 176.347656 360.382812 C 179.535156 366.191406 183.285156 370.878906 185.71875 373.3125 C 185.90625 373.5 186.09375 373.6875 186.28125 373.875 C 186.84375 374.4375 187.21875 374.8125 187.59375 374.8125 C 187.59375 374.8125 187.78125 374.8125 187.78125 374.8125 C 188.53125 374.8125 194.527344 368.816406 199.027344 360.195312 C 201.273438 355.882812 203.335938 351.199219 204.648438 346.328125 C 205.960938 341.453125 206.335938 336.582031 205.773438 332.457031 C 205.398438 327.773438 204.460938 321.402344 201.835938 316.527344 Z M 201.835938 316.527344 " fill-opacity="1" fill-rule="nonzero"/><path fill="#40cbbe" d="M 275.863281 304.160156 C 272.863281 300.226562 268.929688 295.164062 264.242188 292.167969 C 261.992188 290.667969 259.371094 289.730469 256.746094 289.730469 C 255.433594 289.730469 253.933594 289.730469 252.4375 290.292969 C 250.9375 290.667969 249.4375 291.417969 247.75 292.355469 C 241.378906 296.101562 239.503906 300.972656 239.691406 306.597656 C 239.878906 312.03125 242.316406 318.027344 244.191406 322.527344 C 247.375 330.398438 255.621094 338.082031 264.054688 343.140625 C 268.179688 345.578125 272.300781 347.453125 275.488281 348.574219 C 278.671875 349.699219 280.734375 350.074219 281.109375 349.886719 C 281.484375 349.699219 282.234375 347.636719 282.796875 344.265625 C 283.359375 340.890625 283.734375 336.394531 283.734375 331.710938 C 283.734375 321.777344 281.109375 311.09375 275.863281 304.160156 Z M 275.863281 304.160156 " fill-opacity="1" fill-rule="nonzero"/><path fill="#ffffff" d="M 243.628906 342.203125 C 240.816406 337.894531 236.882812 333.769531 233.132812 330.398438 C 229.574219 327.023438 226.386719 324.210938 224.699219 323.089844 C 224.136719 322.714844 223.761719 322.527344 223.761719 322.527344 C 223.386719 322.714844 221.515625 327.585938 219.640625 333.957031 C 217.765625 340.328125 215.703125 348.011719 216.828125 354.199219 C 217.390625 357.757812 218.140625 362.257812 220.765625 365.441406 C 223.386719 368.628906 228.074219 370.691406 236.132812 368.441406 C 244.191406 366.191406 247.1875 362.070312 247.9375 358.132812 C 248.6875 354.011719 247 349.886719 245.878906 346.515625 C 245.316406 345.203125 244.566406 343.703125 243.628906 342.203125 Z M 243.628906 342.203125 " fill-opacity="1" fill-rule="nonzero"/><path fill="#ffffff" d="M 155.546875 334.144531 C 153.671875 327.773438 151.800781 322.902344 151.425781 322.714844 C 151.050781 322.527344 146.925781 325.898438 142.054688 330.398438 C 137.367188 334.894531 131.558594 340.703125 129.496094 346.515625 C 128.375 349.886719 126.6875 354.011719 127.4375 358.132812 C 128.1875 362.257812 131.183594 366.378906 139.242188 368.441406 C 147.300781 370.503906 151.988281 368.628906 154.609375 365.441406 C 157.234375 362.257812 157.984375 357.757812 158.546875 354.199219 C 159.484375 348.949219 157.984375 342.390625 156.296875 336.582031 C 156.109375 335.832031 155.734375 334.894531 155.546875 334.144531 Z M 155.546875 334.144531 " fill-opacity="1" fill-rule="nonzero"/><path fill="#40cbbe" d="M 83.019531 264.429688 C 84.519531 262.179688 85.457031 259.558594 85.457031 256.933594 C 85.457031 255.621094 85.457031 254.121094 84.894531 252.8125 C 84.519531 251.3125 83.769531 249.8125 82.832031 248.125 C 79.085938 241.753906 74.214844 239.878906 68.589844 240.066406 C 63.15625 240.253906 57.160156 242.691406 52.660156 244.566406 C 44.789062 247.75 37.105469 255.996094 32.046875 264.429688 C 30.734375 266.492188 29.796875 268.554688 28.859375 270.425781 C 27.921875 272.300781 27.175781 274.175781 26.613281 275.675781 C 25.488281 278.859375 25.113281 280.921875 25.300781 281.296875 C 25.488281 281.671875 27.546875 282.421875 30.921875 282.984375 C 34.296875 283.546875 38.792969 283.921875 43.476562 283.921875 C 53.222656 283.734375 64.09375 281.109375 71.027344 275.863281 C 75.148438 273.050781 80.023438 269.117188 83.019531 264.429688 Z M 83.019531 264.429688 " fill-opacity="1" fill-rule="nonzero"/><path fill="#40cbbe" d="M 135.308594 306.410156 C 135.496094 300.785156 133.621094 295.914062 127.25 292.167969 C 125.5625 291.230469 124.0625 290.667969 122.5625 290.105469 C 121.0625 289.730469 119.753906 289.542969 118.441406 289.542969 C 115.816406 289.542969 113.195312 290.667969 110.945312 291.980469 C 106.257812 294.976562 102.324219 299.851562 99.324219 303.972656 C 94.078125 310.71875 91.453125 321.589844 91.265625 331.523438 C 91.265625 336.394531 91.640625 340.703125 92.203125 344.078125 C 92.765625 347.453125 93.515625 349.511719 93.890625 349.699219 C 94.265625 349.886719 96.515625 349.511719 99.511719 348.386719 C 102.699219 347.265625 106.820312 345.390625 110.945312 342.953125 C 119.378906 337.894531 127.4375 330.210938 130.808594 322.339844 C 132.683594 317.839844 135.121094 311.84375 135.308594 306.410156 Z M 135.308594 306.410156 " fill-opacity="1" fill-rule="nonzero"/><path fill="#ffffff" d="M 76.835938 288.792969 C 70.464844 290.292969 62.59375 292.542969 57.910156 296.476562 C 55.097656 298.726562 51.722656 301.722656 50.226562 305.472656 C 49.476562 307.347656 49.289062 309.59375 50.039062 312.21875 C 50.785156 314.65625 52.472656 317.464844 55.285156 320.464844 C 58.285156 323.277344 60.90625 324.960938 63.53125 325.710938 C 65.96875 326.460938 68.214844 326.085938 70.089844 325.523438 C 74.027344 324.027344 76.835938 320.652344 79.085938 317.839844 C 82.082031 314.28125 83.957031 309.03125 85.457031 303.972656 C 86.019531 302.285156 86.394531 300.601562 86.769531 298.914062 C 87.332031 296.476562 87.894531 294.226562 88.269531 292.355469 C 88.457031 291.417969 88.644531 290.480469 88.644531 289.917969 C 88.832031 288.230469 89.019531 287.105469 88.832031 287.105469 C 88.457031 286.355469 83.207031 287.105469 76.835938 288.792969 Z M 76.835938 288.792969 " fill-opacity="1" fill-rule="nonzero"/><path fill="#ffffff" d="M 42.917969 235.007812 C 43.476562 234.445312 44.039062 233.695312 44.601562 233.132812 C 45.164062 232.570312 45.726562 232.007812 46.289062 231.445312 C 48.914062 228.636719 50.972656 226.199219 51.910156 224.886719 C 52.285156 224.324219 52.472656 223.949219 52.472656 223.949219 C 52.285156 223.574219 47.414062 221.703125 41.042969 219.828125 C 34.671875 217.953125 26.988281 215.890625 20.800781 216.828125 C 17.242188 217.390625 12.742188 218.140625 9.558594 220.765625 C 6.371094 223.386719 4.308594 228.074219 6.558594 236.132812 C 8.808594 244.191406 12.929688 247.1875 16.867188 247.9375 C 20.988281 248.6875 25.113281 247 28.484375 245.878906 C 33.546875 243.816406 38.605469 239.316406 42.917969 235.007812 Z M 42.917969 235.007812 " fill-opacity="1" fill-rule="nonzero"/><path fill="#40cbbe" d="M 32.046875 111.132812 C 37.105469 119.566406 44.789062 127.625 52.660156 130.996094 C 57.347656 132.871094 63.15625 135.308594 68.589844 135.496094 C 71.402344 135.683594 74.027344 135.121094 76.273438 133.996094 C 78.710938 132.871094 80.773438 130.621094 82.644531 127.4375 C 83.582031 125.75 84.144531 124.25 84.707031 122.75 C 85.082031 121.25 85.269531 119.941406 85.082031 118.441406 C 85.082031 115.816406 83.957031 113.195312 82.644531 110.945312 C 79.648438 106.257812 74.773438 102.324219 70.652344 99.324219 C 68.027344 97.265625 65.03125 95.765625 61.46875 94.453125 C 60.34375 94.078125 59.21875 93.703125 57.910156 93.328125 C 53.035156 92.015625 47.976562 91.265625 43.101562 91.265625 C 42.542969 91.265625 41.980469 91.265625 41.230469 91.265625 C 37.667969 91.265625 34.484375 91.640625 31.671875 92.015625 C 31.296875 92.015625 30.734375 92.203125 30.359375 92.203125 C 27.175781 92.765625 24.925781 93.515625 24.738281 93.890625 C 24.550781 94.265625 24.925781 96.515625 26.050781 99.511719 C 27.734375 102.886719 29.609375 107.007812 32.046875 111.132812 Z M 32.046875 111.132812 " fill-opacity="1" fill-rule="nonzero"/><path fill="#40cbbe" d="M 28.484375 204.648438 C 33.359375 205.960938 38.230469 206.335938 42.355469 205.960938 C 47.414062 205.398438 53.597656 204.460938 58.472656 201.835938 C 63.34375 199.210938 66.714844 195.277344 66.714844 187.59375 C 66.902344 180.097656 63.34375 175.972656 58.472656 173.539062 C 53.597656 170.914062 47.414062 170.164062 42.355469 169.414062 C 38.042969 168.851562 33.359375 169.414062 28.484375 170.539062 C 23.613281 171.851562 18.929688 173.914062 14.617188 176.160156 C 6.183594 180.847656 0.1875 186.65625 0 187.40625 C 0 188.15625 5.996094 194.152344 14.617188 198.652344 C 18.929688 201.273438 23.800781 203.335938 28.484375 204.648438 Z M 28.484375 204.648438 " fill-opacity="1" fill-rule="nonzero"/><path fill="#ffffff" d="M 9.558594 154.609375 C 12.742188 157.234375 17.242188 157.984375 20.800781 158.546875 C 26.800781 159.484375 34.484375 157.421875 41.042969 155.546875 C 47.414062 153.671875 52.285156 151.800781 52.472656 151.425781 C 52.660156 151.050781 49.289062 146.925781 44.601562 142.054688 C 40.105469 137.367188 34.296875 131.558594 28.484375 129.496094 C 25.113281 128.375 20.800781 126.6875 16.867188 127.4375 C 12.742188 128.1875 8.808594 131.183594 6.558594 139.242188 C 4.496094 147.300781 6.371094 151.988281 9.558594 154.609375 Z M 9.558594 154.609375 " fill-opacity="1" fill-rule="nonzero"/><path fill="#ffffff" d="M 57.722656 78.898438 C 62.40625 82.832031 70.277344 84.894531 76.648438 86.394531 C 78.335938 86.769531 79.835938 87.144531 81.148438 87.332031 C 82.269531 87.519531 83.207031 87.707031 83.957031 87.894531 C 85.082031 88.082031 86.019531 88.269531 86.769531 88.269531 C 87.707031 88.457031 88.269531 88.457031 88.269531 88.269531 C 88.644531 87.894531 87.707031 82.832031 86.207031 76.273438 C 84.707031 69.902344 82.457031 62.03125 78.710938 57.347656 C 76.460938 54.535156 73.464844 51.160156 69.714844 49.664062 C 67.839844 48.914062 65.59375 48.726562 62.96875 49.476562 C 60.53125 50.226562 57.722656 51.910156 54.722656 54.722656 C 51.910156 57.722656 50.226562 60.53125 49.476562 62.96875 C 48.726562 65.40625 49.101562 67.652344 49.664062 69.714844 C 51.535156 73.839844 55.097656 76.648438 57.722656 78.898438 Z M 57.722656 78.898438 " fill-opacity="1" fill-rule="nonzero"/><path fill="#40cbbe" d="M 173.351562 58.65625 C 174.664062 61.09375 176.347656 63.15625 178.597656 64.65625 C 180.847656 65.96875 183.65625 66.902344 187.59375 66.902344 C 195.089844 67.089844 199.210938 63.53125 201.648438 58.65625 C 204.273438 53.785156 205.023438 47.601562 205.585938 42.542969 C 206.148438 38.230469 205.585938 33.546875 204.273438 28.671875 C 203.710938 26.238281 202.773438 23.800781 201.835938 21.550781 C 200.898438 19.304688 199.773438 17.054688 198.652344 14.804688 C 193.964844 6.371094 188.15625 0.375 187.40625 0.1875 C 186.65625 0.1875 180.660156 6.183594 176.160156 14.804688 C 173.914062 19.117188 171.851562 23.800781 170.539062 28.671875 C 169.226562 33.546875 168.851562 38.417969 169.414062 42.542969 C 169.789062 47.414062 170.726562 53.785156 173.351562 58.65625 Z M 173.351562 58.65625 " fill-opacity="1" fill-rule="nonzero"/><path fill="#40cbbe" d="M 99.324219 71.027344 C 102.324219 74.960938 106.257812 80.023438 110.945312 83.019531 C 113.195312 84.519531 115.816406 85.457031 118.441406 85.457031 C 119.753906 85.457031 121.25 85.457031 122.75 84.894531 C 124.25 84.519531 125.75 83.769531 127.4375 82.832031 C 133.808594 79.085938 135.683594 74.214844 135.496094 68.589844 C 135.308594 63.15625 132.871094 57.160156 130.996094 52.660156 C 127.8125 44.789062 119.566406 37.105469 111.132812 32.046875 C 107.007812 29.609375 102.886719 27.734375 99.699219 26.613281 C 96.515625 25.488281 94.453125 25.113281 94.078125 25.300781 C 93.703125 25.488281 92.953125 27.546875 92.390625 30.921875 C 91.828125 34.296875 91.453125 38.792969 91.453125 43.476562 C 91.453125 53.222656 94.078125 64.09375 99.324219 71.027344 Z M 99.324219 71.027344 " fill-opacity="1" fill-rule="nonzero"/><path fill="#ffffff" d="M 141.867188 44.601562 C 146.738281 49.101562 150.863281 52.472656 151.238281 52.285156 C 151.613281 52.097656 153.484375 47.226562 155.359375 40.855469 C 157.234375 34.484375 159.296875 26.800781 158.171875 20.613281 C 157.609375 17.054688 156.859375 12.554688 154.234375 9.371094 C 151.613281 6.183594 146.925781 4.121094 138.867188 6.371094 C 130.808594 8.621094 127.8125 12.742188 127.0625 16.679688 C 126.3125 20.800781 128 24.925781 129.121094 28.296875 C 131.371094 34.296875 137.179688 40.105469 141.867188 44.601562 Z M 141.867188 44.601562 " fill-opacity="1" fill-rule="nonzero"/><path fill="#ffffff" d="M 219.640625 41.042969 C 220.203125 42.730469 220.578125 44.226562 221.140625 45.539062 C 221.328125 46.289062 221.515625 46.851562 221.890625 47.414062 C 222.078125 47.976562 222.265625 48.539062 222.453125 49.101562 C 223.199219 51.160156 223.761719 52.285156 223.949219 52.472656 C 224.324219 52.660156 228.449219 49.289062 233.320312 44.789062 C 238.007812 40.292969 243.816406 34.484375 245.878906 28.671875 C 247 25.300781 248.6875 21.175781 247.9375 17.054688 C 247.1875 12.929688 244.191406 8.808594 236.132812 6.746094 C 228.074219 4.683594 223.386719 6.558594 220.765625 9.746094 C 218.140625 12.929688 217.390625 17.429688 216.828125 20.988281 C 216.078125 25.488281 217.015625 30.921875 218.328125 36.167969 C 218.703125 37.667969 219.078125 39.355469 219.640625 41.042969 Z M 219.640625 41.042969 " fill-opacity="1" fill-rule="nonzero"/><path fill="#40cbbe" d="M 292.167969 110.757812 C 290.667969 113.007812 289.730469 115.628906 289.730469 118.253906 C 289.730469 119.566406 289.730469 121.066406 290.292969 122.375 C 290.667969 123.875 291.417969 125.375 292.355469 127.0625 C 296.101562 133.433594 300.972656 135.308594 306.597656 135.121094 C 312.03125 134.933594 318.027344 132.496094 322.527344 130.621094 C 323.089844 130.433594 323.464844 130.246094 324.027344 129.871094 C 324.960938 129.308594 325.898438 128.75 327.023438 128.1875 C 327.960938 127.625 328.898438 126.875 329.835938 126.125 C 331.335938 125 332.644531 123.875 333.957031 122.5625 C 334.894531 121.625 335.644531 120.691406 336.582031 119.753906 C 339.019531 116.941406 341.265625 113.753906 343.140625 110.570312 C 345.578125 106.445312 347.453125 102.324219 348.574219 99.136719 C 348.761719 98.761719 348.761719 98.386719 348.949219 98.011719 C 349.699219 95.765625 350.074219 94.265625 350.074219 93.703125 C 350.074219 93.515625 350.074219 93.515625 350.074219 93.515625 C 349.886719 93.140625 347.824219 92.390625 344.453125 91.828125 C 341.078125 91.265625 336.582031 90.890625 331.898438 90.890625 C 322.152344 91.078125 311.28125 93.703125 304.347656 98.949219 C 300.039062 102.136719 295.164062 106.070312 292.167969 110.757812 Z M 292.167969 110.757812 " fill-opacity="1" fill-rule="nonzero"/><path fill="#40cbbe" d="M 239.878906 68.777344 C 239.691406 74.398438 241.566406 79.273438 247.9375 83.019531 C 249.625 83.957031 251.125 84.519531 252.625 85.082031 C 254.121094 85.457031 255.433594 85.644531 256.746094 85.644531 C 259.371094 85.644531 261.992188 84.519531 264.242188 83.207031 C 268.929688 80.210938 272.863281 75.335938 275.863281 71.214844 C 281.109375 64.46875 283.734375 53.597656 283.921875 43.664062 C 283.921875 38.792969 283.546875 34.484375 282.984375 31.109375 C 282.421875 27.734375 281.671875 25.675781 281.296875 25.488281 C 280.921875 25.300781 278.671875 25.675781 275.675781 26.800781 C 272.488281 27.921875 268.367188 29.796875 264.242188 32.234375 C 255.808594 37.292969 247.75 44.976562 244.378906 52.847656 C 242.503906 57.347656 240.066406 63.34375 239.878906 68.777344 Z M 239.878906 68.777344 " fill-opacity="1" fill-rule="nonzero"/><path fill="#40cbbe" d="M 360.382812 176.347656 C 356.070312 174.101562 351.386719 172.039062 346.515625 170.726562 C 341.640625 169.414062 336.769531 169.039062 332.644531 169.414062 C 327.585938 169.976562 321.402344 170.914062 316.527344 173.539062 C 311.65625 176.160156 308.285156 180.097656 308.285156 187.78125 C 308.097656 195.277344 311.65625 199.398438 316.527344 201.835938 C 321.402344 204.460938 327.585938 205.210938 332.644531 205.960938 C 336.957031 206.523438 341.640625 205.960938 346.515625 204.835938 C 351.386719 203.523438 356.070312 201.460938 360.382812 199.210938 C 368.816406 194.527344 374.8125 188.71875 375 187.96875 C 375 186.84375 369.003906 180.847656 360.382812 176.347656 Z M 360.382812 176.347656 " fill-opacity="1" fill-rule="nonzero"/><path fill="#ffffff" d="M 298.351562 86.394531 C 304.722656 84.894531 312.59375 82.644531 317.277344 78.710938 C 320.089844 76.460938 323.464844 73.464844 324.960938 69.714844 C 325.710938 67.839844 325.898438 65.59375 325.148438 62.96875 C 324.398438 60.53125 322.714844 57.722656 319.902344 54.722656 C 316.902344 51.910156 314.28125 50.226562 311.65625 49.476562 C 309.21875 48.726562 306.972656 49.101562 305.097656 49.664062 C 301.160156 51.160156 298.351562 54.535156 296.101562 57.347656 C 294.226562 59.78125 292.730469 62.78125 291.417969 66.15625 C 290.292969 69.527344 289.355469 73.089844 288.605469 76.273438 C 288.042969 78.335938 287.667969 80.210938 287.292969 81.898438 C 287.105469 82.832031 286.917969 83.769531 286.730469 84.519531 C 286.730469 85.082031 286.542969 85.457031 286.542969 86.019531 C 286.355469 87.332031 286.355469 88.082031 286.355469 88.269531 C 286.730469 88.832031 291.980469 88.082031 298.351562 86.394531 Z M 298.351562 86.394531 " fill-opacity="1" fill-rule="nonzero"/><path fill="#ffffff" d="M 330.585938 142.054688 C 328.898438 143.929688 327.398438 145.613281 326.085938 147.113281 C 324.398438 148.988281 323.277344 150.488281 322.902344 151.238281 C 322.902344 151.425781 322.714844 151.425781 322.714844 151.613281 C 322.902344 151.988281 327.773438 153.859375 334.144531 155.734375 C 340.515625 157.609375 348.199219 159.671875 354.386719 158.734375 C 357.945312 158.171875 362.445312 157.421875 365.628906 154.796875 C 368.816406 152.175781 370.878906 147.488281 368.628906 139.429688 C 366.378906 131.371094 362.257812 128.375 358.320312 127.625 C 354.199219 126.875 350.074219 128.5625 346.703125 129.683594 C 340.890625 131.558594 335.082031 137.179688 330.585938 142.054688 Z M 330.585938 142.054688 " fill-opacity="1" fill-rule="nonzero"/><path fill="#40cbbe" d="M 196.964844 208.394531 C 195.089844 205.210938 193.402344 202.210938 191.902344 200.335938 C 190.40625 198.277344 189.09375 196.964844 187.59375 197.152344 C 186.84375 196.964844 186.09375 197.527344 185.34375 197.902344 C 184.59375 198.277344 184.03125 199.398438 183.285156 200.335938 C 181.785156 202.210938 180.097656 205.398438 178.222656 208.582031 C 174.476562 215.140625 170.914062 223.574219 168.289062 230.324219 C 166.042969 236.132812 164.730469 242.878906 164.917969 250 C 164.917969 253.75 165.480469 257.121094 166.417969 260.683594 C 167.355469 264.242188 168.476562 267.804688 169.976562 271.175781 C 174.664062 281.859375 182.722656 289.730469 186.28125 292.355469 C 187.03125 292.917969 187.78125 293.289062 187.96875 293.289062 C 188.71875 293.289062 191.714844 291.042969 195.277344 287.105469 C 196.214844 286.167969 197.152344 285.046875 198.089844 283.921875 C 199.027344 282.796875 199.960938 281.484375 200.898438 279.984375 C 202.773438 277.175781 204.460938 274.175781 205.960938 270.988281 C 207.457031 267.617188 208.582031 264.054688 209.332031 260.496094 C 210.082031 256.933594 210.644531 253.375 210.644531 249.625 C 210.832031 242.503906 209.332031 235.570312 207.082031 229.949219 C 204.460938 223.199219 200.710938 214.769531 196.964844 208.394531 Z M 196.964844 208.394531 " fill-opacity="1" fill-rule="nonzero"/><path fill="#ffffff" d="M 262.554688 230.136719 C 258.808594 227.886719 253.75 226.761719 248.875 225.636719 C 246.4375 225.074219 243.816406 224.699219 241.566406 224.136719 C 239.128906 223.574219 236.695312 223.011719 234.445312 222.636719 C 232.195312 222.078125 230.136719 221.703125 228.261719 221.140625 C 226.949219 220.765625 225.636719 220.390625 224.324219 220.015625 C 223.949219 219.828125 223.574219 219.828125 223.199219 219.640625 C 222.453125 219.453125 221.890625 219.265625 221.328125 219.078125 C 219.640625 218.515625 218.703125 218.328125 218.703125 218.515625 C 218.515625 218.703125 219.078125 220.203125 219.828125 223.011719 C 220.203125 224.324219 220.765625 226.011719 221.328125 227.886719 C 221.890625 229.761719 222.265625 231.820312 222.824219 234.070312 C 223.949219 238.566406 224.886719 243.628906 226.011719 248.5 C 227.136719 253.375 228.449219 258.246094 230.695312 262.179688 C 233.320312 266.679688 236.320312 272.300781 242.128906 275.113281 C 244.941406 276.425781 248.5 276.988281 252.8125 275.863281 C 254.871094 275.300781 257.308594 274.363281 259.746094 272.863281 C 262.179688 271.363281 264.804688 269.304688 267.429688 266.679688 C 270.050781 264.054688 271.925781 261.433594 273.425781 258.996094 C 274.925781 256.558594 275.863281 254.121094 276.425781 252.0625 C 277.546875 247.75 276.988281 244.191406 275.675781 241.378906 C 272.675781 235.757812 266.867188 232.757812 262.554688 230.136719 Z M 262.554688 230.136719 " fill-opacity="1" fill-rule="nonzero"/><path fill="#ffffff" d="M 108.132812 267.054688 C 110.757812 269.675781 113.378906 271.550781 115.816406 273.238281 C 118.253906 274.738281 120.691406 275.675781 122.75 276.238281 C 127.0625 277.359375 130.621094 276.800781 133.433594 275.488281 C 139.054688 272.863281 142.242188 267.054688 144.863281 262.554688 C 147.113281 258.808594 148.425781 253.75 149.363281 248.875 C 149.925781 246.4375 150.300781 243.816406 150.863281 241.566406 C 151.425781 239.128906 151.988281 236.695312 152.359375 234.445312 C 152.546875 233.320312 152.921875 232.195312 153.109375 231.257812 C 153.296875 230.324219 153.671875 229.199219 153.859375 228.261719 C 154.234375 226.949219 154.609375 225.636719 154.984375 224.511719 C 155.171875 224.136719 155.171875 223.761719 155.359375 223.386719 C 156.109375 220.578125 156.671875 219.078125 156.484375 218.890625 C 156.296875 218.703125 154.796875 219.265625 151.988281 220.015625 C 150.675781 220.390625 148.988281 220.953125 147.113281 221.515625 C 145.238281 222.078125 143.179688 222.453125 140.929688 223.011719 C 138.679688 223.574219 136.246094 223.949219 133.808594 224.511719 C 131.371094 225.074219 128.933594 225.449219 126.5 226.011719 C 121.625 227.136719 116.753906 228.449219 112.820312 230.511719 C 108.320312 233.132812 102.511719 236.132812 99.886719 241.941406 C 98.574219 244.753906 98.011719 248.3125 99.136719 252.625 C 99.699219 254.683594 100.636719 257.121094 102.136719 259.558594 C 103.636719 261.621094 105.695312 264.242188 108.132812 267.054688 Z M 108.132812 267.054688 " fill-opacity="1" fill-rule="nonzero"/><path fill="#40cbbe" d="M 178.222656 166.792969 C 180.097656 169.976562 181.785156 172.976562 183.285156 174.851562 C 184.78125 176.910156 186.09375 178.222656 187.59375 178.035156 C 188.34375 178.222656 189.09375 177.660156 189.84375 177.285156 C 190.59375 176.910156 191.15625 175.785156 191.902344 174.851562 C 193.402344 172.976562 195.089844 169.789062 196.964844 166.605469 C 200.710938 160.046875 204.273438 151.613281 206.898438 144.863281 C 208.394531 141.304688 209.332031 137.179688 209.894531 133.058594 C 210.269531 130.433594 210.457031 127.8125 210.269531 125.1875 C 210.269531 125.1875 210.269531 125.1875 210.269531 125 C 210.269531 123.3125 210.082031 121.625 209.894531 119.941406 C 209.707031 119.003906 209.707031 118.066406 209.519531 116.941406 C 209.332031 116.003906 209.144531 115.066406 208.957031 114.316406 C 208.394531 111.695312 207.457031 108.882812 206.523438 106.445312 C 206.148438 105.507812 205.773438 104.761719 205.398438 104.011719 C 205.023438 103.261719 204.648438 102.324219 204.273438 101.574219 C 203.898438 100.824219 203.523438 100.074219 202.960938 99.324219 C 202.023438 97.824219 201.273438 96.328125 200.335938 95.015625 C 197.152344 90.328125 193.589844 86.582031 190.96875 84.332031 C 190.21875 83.769531 189.65625 83.207031 189.09375 82.832031 C 188.34375 82.269531 187.59375 81.898438 187.40625 81.898438 C 186.65625 81.898438 183.65625 84.144531 180.097656 88.082031 C 179.160156 89.019531 178.222656 90.140625 177.285156 91.265625 C 176.347656 92.390625 175.414062 93.703125 174.476562 95.203125 C 172.601562 98.011719 170.914062 101.011719 169.414062 104.199219 C 167.914062 107.570312 166.792969 111.132812 166.042969 114.691406 C 165.292969 118.253906 164.730469 121.8125 164.730469 125.5625 C 164.542969 132.683594 166.042969 139.617188 168.289062 145.238281 C 170.726562 151.988281 174.476562 160.417969 178.222656 166.792969 Z M 178.222656 166.792969 " fill-opacity="1" fill-rule="nonzero"/><path fill="#40cbbe" d="M 177.285156 189.84375 C 177.660156 189.09375 178.222656 188.53125 178.035156 187.59375 L 178.222656 187.59375 C 178.410156 186.84375 177.847656 186.09375 177.472656 185.53125 C 177.097656 184.78125 175.972656 184.21875 175.039062 183.472656 C 173.164062 181.972656 169.976562 180.285156 166.980469 178.410156 C 160.417969 174.664062 151.988281 171.101562 145.238281 168.476562 C 139.429688 166.230469 132.683594 164.917969 125.5625 164.917969 C 121.8125 164.917969 118.441406 165.480469 114.878906 166.230469 C 111.320312 166.980469 107.757812 168.289062 104.386719 169.789062 C 98.011719 172.601562 92.015625 176.722656 88.269531 180.285156 C 84.332031 183.84375 82.082031 186.84375 82.082031 187.59375 L 81.898438 187.59375 C 81.898438 188.34375 84.144531 191.34375 88.082031 194.902344 C 91.828125 198.464844 97.824219 202.585938 104.199219 205.585938 C 107.570312 207.082031 111.132812 208.207031 114.691406 209.144531 C 118.253906 209.894531 121.8125 210.457031 125.375 210.457031 C 132.683594 210.644531 139.429688 209.332031 145.050781 206.898438 C 151.800781 204.273438 160.230469 200.710938 166.792969 196.964844 C 169.976562 195.089844 172.976562 193.402344 174.851562 191.902344 C 175.972656 191.15625 176.910156 190.40625 177.285156 189.84375 Z M 177.285156 189.84375 " fill-opacity="1" fill-rule="nonzero"/><path fill="#40cbbe" d="M 249.625 210.269531 C 253.375 210.269531 256.746094 209.707031 260.308594 208.957031 C 263.867188 208.207031 267.429688 206.898438 270.800781 205.398438 C 277.175781 202.398438 283.171875 198.464844 286.917969 194.902344 C 290.855469 191.34375 293.101562 188.34375 293.101562 187.59375 L 293.289062 187.59375 C 293.289062 186.84375 291.042969 183.84375 287.105469 180.285156 C 283.359375 176.722656 277.363281 172.601562 270.988281 169.601562 C 267.617188 168.101562 264.054688 166.980469 260.496094 166.042969 C 256.933594 165.292969 253.375 164.730469 249.8125 164.730469 C 242.503906 164.542969 235.757812 165.855469 230.136719 168.289062 C 223.386719 170.914062 214.953125 174.476562 208.394531 178.222656 C 205.210938 180.097656 202.210938 181.785156 200.335938 183.285156 C 199.398438 184.03125 198.464844 184.78125 197.902344 185.34375 C 197.527344 186.09375 196.964844 186.65625 197.152344 187.59375 L 196.964844 187.59375 C 196.777344 188.34375 197.339844 189.09375 197.714844 189.65625 C 198.089844 190.40625 199.210938 190.96875 200.148438 191.714844 C 202.023438 193.214844 205.210938 194.902344 208.207031 196.777344 C 214.769531 200.523438 223.199219 204.085938 229.949219 206.710938 C 235.757812 209.144531 242.503906 210.457031 249.625 210.269531 Z M 249.625 210.269531 " fill-opacity="1" fill-rule="nonzero"/><path fill="#ffffff" d="M 153.859375 147.300781 C 153.296875 145.425781 152.921875 143.367188 152.359375 141.117188 C 151.238281 136.621094 150.300781 131.558594 149.175781 126.6875 C 148.050781 121.8125 146.738281 116.941406 144.492188 113.007812 C 141.867188 108.507812 138.867188 102.886719 133.058594 100.074219 C 130.246094 98.761719 126.6875 98.199219 122.375 99.324219 C 120.316406 99.886719 117.878906 100.824219 115.441406 102.324219 C 113.007812 103.824219 110.382812 105.882812 107.757812 108.507812 C 105.136719 111.132812 103.261719 113.753906 101.761719 116.191406 C 100.261719 118.628906 99.324219 121.0625 98.761719 123.125 C 97.640625 127.4375 98.199219 130.996094 99.511719 133.808594 C 102.136719 139.429688 107.945312 142.617188 112.445312 145.050781 C 116.191406 147.300781 121.25 148.425781 126.125 149.550781 C 128.5625 150.113281 131.183594 150.488281 133.433594 151.050781 C 134.746094 151.238281 135.871094 151.613281 136.992188 151.800781 C 138.117188 151.988281 139.429688 152.359375 140.554688 152.546875 C 141.679688 152.734375 142.804688 153.109375 143.742188 153.296875 C 144.675781 153.484375 145.800781 153.859375 146.738281 154.046875 C 148.613281 154.609375 150.300781 154.984375 151.613281 155.546875 C 154.421875 156.296875 155.921875 156.859375 156.109375 156.671875 C 156.296875 156.484375 155.734375 154.984375 154.984375 152.175781 C 154.984375 150.675781 154.421875 149.175781 153.859375 147.300781 Z M 153.859375 147.300781 " fill-opacity="1" fill-rule="nonzero"/><path fill="#ffffff" d="M 267.054688 108.132812 C 264.429688 105.507812 261.804688 103.636719 259.371094 101.949219 C 256.933594 100.449219 254.496094 99.511719 252.4375 98.949219 C 248.125 97.824219 244.566406 98.386719 241.753906 99.699219 C 236.132812 102.324219 232.945312 108.132812 230.324219 112.632812 C 229.199219 114.503906 228.449219 116.753906 227.699219 119.003906 C 226.949219 121.25 226.386719 123.6875 225.824219 126.3125 C 225.261719 128.75 224.886719 131.371094 224.324219 133.621094 C 224.136719 134.933594 223.761719 136.058594 223.574219 137.179688 C 223.386719 138.304688 223.011719 139.617188 222.824219 140.742188 C 222.265625 142.992188 221.890625 145.050781 221.328125 146.925781 C 221.140625 147.863281 220.765625 148.800781 220.578125 149.550781 C 220.390625 150.300781 220.203125 151.238281 219.828125 151.800781 C 219.453125 153.109375 219.078125 154.234375 218.890625 154.984375 C 218.703125 155.734375 218.515625 156.109375 218.703125 156.296875 C 218.890625 156.484375 220.390625 155.921875 223.199219 155.171875 C 224.511719 154.796875 226.199219 154.234375 228.074219 153.671875 C 229.949219 153.109375 232.007812 152.734375 234.257812 152.175781 C 236.507812 151.613281 238.941406 151.238281 241.378906 150.675781 C 243.816406 150.113281 246.25 149.738281 248.6875 149.175781 C 253.5625 148.050781 258.433594 146.738281 262.367188 144.675781 C 266.867188 142.054688 272.675781 139.054688 275.300781 133.246094 C 276.613281 130.433594 277.175781 126.875 276.050781 122.5625 C 275.488281 120.503906 274.550781 118.066406 273.050781 115.628906 C 271.550781 113.378906 269.488281 110.945312 267.054688 108.132812 Z M 267.054688 108.132812 " fill-opacity="1" fill-rule="nonzero"/><path fill="#ffffff" d="M 285.792969 226.949219 C 288.230469 228.824219 291.417969 229.386719 294.039062 229.761719 C 295.164062 229.949219 296.289062 229.949219 297.601562 229.949219 C 298.914062 229.949219 300.039062 229.761719 301.347656 229.574219 C 303.972656 229.199219 306.410156 228.449219 308.84375 227.699219 C 309.59375 227.511719 310.15625 227.324219 310.71875 227.136719 C 312.96875 226.386719 314.84375 225.636719 315.96875 225.261719 C 316.15625 225.261719 316.15625 225.074219 316.339844 225.074219 C 316.527344 224.886719 316.714844 224.886719 316.902344 224.886719 C 317.089844 224.886719 317.089844 224.699219 317.089844 224.699219 C 317.277344 224.324219 314.84375 221.515625 311.46875 217.953125 C 308.097656 214.394531 303.972656 210.269531 299.851562 208.769531 C 297.414062 207.832031 294.414062 206.710938 291.417969 207.269531 C 288.417969 207.832031 285.417969 209.894531 283.921875 215.890625 C 282.046875 221.515625 283.359375 225.074219 285.792969 226.949219 Z M 285.792969 226.949219 " fill-opacity="1" fill-rule="nonzero"/><path fill="#ffffff" d="M 283.734375 166.417969 C 286.730469 167.167969 289.917969 166.417969 292.355469 165.855469 C 293.476562 165.667969 294.601562 165.105469 295.539062 164.542969 C 296.664062 163.980469 297.789062 163.417969 298.726562 162.667969 C 300.785156 161.167969 302.847656 159.484375 304.722656 157.984375 C 305.285156 157.609375 305.847656 157.046875 306.222656 156.671875 C 308.097656 154.984375 309.40625 153.671875 310.34375 152.734375 C 310.34375 152.546875 310.53125 152.546875 310.53125 152.546875 C 310.71875 152.359375 310.71875 152.175781 310.90625 152.175781 C 310.90625 151.988281 311.09375 151.988281 311.09375 151.988281 C 311.09375 151.613281 307.722656 149.925781 303.222656 148.050781 C 298.914062 146.175781 293.289062 144.117188 288.792969 144.304688 C 286.167969 144.492188 282.984375 144.675781 280.359375 146.363281 C 277.921875 148.050781 276.050781 151.238281 276.988281 157.234375 C 278.109375 163.230469 280.734375 165.667969 283.734375 166.417969 Z M 283.734375 166.417969 " fill-opacity="1" fill-rule="nonzero"/><path fill="#ffffff" d="M 227.511719 91.828125 C 229.199219 89.394531 229.386719 86.019531 229.574219 83.394531 C 229.574219 82.269531 229.574219 81.148438 229.386719 79.835938 C 229.199219 78.523438 229.011719 77.398438 228.636719 76.085938 C 227.886719 73.652344 226.949219 71.027344 226.011719 68.777344 C 225.824219 68.214844 225.449219 67.464844 225.261719 66.902344 C 224.324219 64.65625 223.386719 62.78125 222.824219 61.84375 C 222.824219 61.65625 222.636719 61.65625 222.636719 61.46875 C 222.453125 61.28125 222.453125 61.09375 222.265625 61.09375 C 222.265625 60.90625 222.078125 60.90625 222.078125 60.90625 C 221.703125 60.90625 219.078125 63.53125 215.890625 67.089844 C 212.707031 70.652344 208.957031 75.335938 207.832031 79.648438 C 207.269531 82.082031 206.335938 85.269531 207.082031 88.269531 C 207.832031 91.078125 210.269531 93.890625 216.265625 95.015625 C 222.636719 95.953125 225.824219 94.265625 227.511719 91.828125 Z M 227.511719 91.828125 " fill-opacity="1" fill-rule="nonzero"/><path fill="#ffffff" d="M 164.542969 88.832031 C 165.292969 85.832031 164.542969 82.644531 163.792969 80.210938 C 163.605469 79.085938 163.042969 77.960938 162.480469 77.023438 C 161.917969 75.898438 161.355469 74.773438 160.605469 73.839844 C 159.296875 71.589844 157.609375 69.527344 155.921875 67.652344 C 155.546875 67.089844 154.984375 66.527344 154.609375 66.15625 C 152.921875 64.28125 151.613281 62.96875 150.675781 62.03125 C 150.488281 62.03125 150.488281 61.84375 150.488281 61.84375 C 150.300781 61.65625 150.113281 61.65625 150.113281 61.46875 C 149.925781 61.46875 149.925781 61.28125 149.925781 61.28125 C 149.550781 61.28125 147.863281 64.65625 145.988281 69.152344 C 144.117188 73.652344 142.054688 79.085938 142.429688 83.582031 C 142.617188 86.207031 142.804688 89.394531 144.492188 92.015625 C 146.175781 94.453125 149.363281 96.328125 155.359375 95.390625 C 161.167969 94.453125 163.792969 91.828125 164.542969 88.832031 Z M 164.542969 88.832031 " fill-opacity="1" fill-rule="nonzero"/><path fill="#ffffff" d="M 93.703125 149.363281 C 91.265625 147.488281 88.082031 147.113281 85.457031 146.738281 C 84.332031 146.550781 83.207031 146.550781 81.898438 146.738281 C 80.773438 146.738281 79.460938 146.925781 78.148438 147.300781 C 75.710938 147.863281 73.089844 148.613281 70.839844 149.363281 C 70.089844 149.550781 69.527344 149.738281 68.964844 149.925781 C 66.714844 150.675781 64.84375 151.425781 63.71875 151.988281 C 63.53125 151.988281 63.53125 152.175781 63.34375 152.175781 C 63.15625 152.359375 62.96875 152.359375 62.78125 152.359375 C 62.59375 152.359375 62.59375 152.546875 62.59375 152.546875 C 62.59375 152.921875 65.03125 155.734375 68.402344 159.109375 C 71.777344 162.480469 76.085938 166.605469 80.210938 167.917969 C 82.644531 168.664062 85.832031 169.789062 88.832031 169.226562 C 91.828125 168.664062 94.640625 166.417969 96.140625 160.417969 C 97.640625 154.421875 96.140625 151.050781 93.703125 149.363281 Z M 93.703125 149.363281 " fill-opacity="1" fill-rule="nonzero"/><path fill="#ffffff" d="M 90.140625 209.894531 C 87.332031 208.957031 83.957031 209.707031 81.523438 210.269531 C 80.398438 210.457031 79.273438 211.019531 78.148438 211.394531 C 77.023438 211.957031 75.898438 212.519531 74.773438 213.269531 C 72.527344 214.582031 70.464844 216.265625 68.589844 217.765625 C 68.027344 218.140625 67.464844 218.703125 67.089844 219.078125 C 65.21875 220.578125 63.71875 222.078125 62.96875 222.824219 C 62.78125 223.011719 62.78125 223.011719 62.78125 223.011719 C 62.59375 223.199219 62.59375 223.386719 62.40625 223.386719 C 62.40625 223.574219 62.21875 223.574219 62.21875 223.574219 C 62.21875 223.949219 65.59375 225.636719 70.089844 227.699219 C 74.398438 229.574219 80.023438 231.820312 84.332031 231.632812 C 86.957031 231.445312 90.140625 231.445312 92.765625 229.761719 C 95.390625 228.261719 97.265625 225.074219 96.515625 218.890625 C 95.765625 213.457031 93.140625 210.832031 90.140625 209.894531 Z M 90.140625 209.894531 " fill-opacity="1" fill-rule="nonzero"/><path fill="#ffffff" d="M 146.738281 280.734375 C 145.238281 283.359375 145.050781 286.542969 145.050781 289.167969 C 145.050781 290.292969 145.238281 291.417969 145.425781 292.730469 C 145.613281 293.851562 145.988281 295.164062 146.363281 296.289062 C 147.113281 298.726562 148.238281 301.160156 149.175781 303.410156 C 149.550781 303.972656 149.738281 304.722656 150.113281 305.285156 C 151.238281 307.535156 152.175781 309.21875 152.734375 310.34375 C 152.734375 310.53125 152.921875 310.53125 152.921875 310.71875 C 153.109375 310.90625 153.109375 311.09375 153.296875 311.09375 C 153.296875 311.28125 153.484375 311.28125 153.484375 311.28125 C 153.859375 311.28125 156.296875 308.472656 159.484375 304.722656 C 162.480469 300.972656 166.042969 296.289062 166.980469 291.792969 C 167.542969 289.167969 168.289062 285.980469 167.355469 283.171875 C 166.417969 280.359375 163.792969 277.734375 157.796875 276.988281 C 151.425781 276.238281 148.425781 278.109375 146.738281 280.734375 Z M 146.738281 280.734375 " fill-opacity="1" fill-rule="nonzero"/><path fill="#ffffff" d="M 208.207031 279.234375 C 207.269531 282.046875 207.832031 285.417969 208.394531 287.855469 C 208.582031 288.980469 208.957031 290.105469 209.519531 291.230469 C 210.082031 292.355469 210.644531 293.476562 211.207031 294.601562 C 212.519531 296.851562 214.019531 298.914062 215.515625 300.972656 C 215.890625 301.535156 216.265625 302.097656 216.828125 302.660156 C 218.328125 304.535156 219.640625 306.035156 220.390625 306.972656 C 220.578125 307.160156 220.578125 307.160156 220.578125 307.160156 C 220.765625 307.347656 220.953125 307.535156 220.953125 307.535156 C 221.140625 307.535156 221.140625 307.722656 221.140625 307.722656 C 221.515625 307.722656 223.386719 304.347656 225.449219 300.039062 C 227.511719 295.726562 229.949219 290.292969 229.949219 285.980469 C 229.949219 283.359375 229.949219 280.171875 228.449219 277.546875 C 226.949219 274.925781 223.761719 272.863281 217.765625 273.425781 C 211.957031 273.800781 209.332031 276.238281 208.207031 279.234375 Z M 208.207031 279.234375 " fill-opacity="1" fill-rule="nonzero"/></svg>